<?xml version="1.0" encoding="UTF-8" standalone="no"?>
<svg
   version="1.1"
   width="24"
   height="24"
   viewBox="0 0 24 24"
   id="svg91"
   sodipodi:docname="account-group-white.svg"
   inkscape:version="1.1.2 (0a00cf5339, 2022-02-04)"
   xmlns:inkscape="http://www.inkscape.org/namespaces/inkscape"
   xmlns:sodipodi="http://sodipodi.sourceforge.net/DTD/sodipodi-0.dtd"
   xmlns="http://www.w3.org/2000/svg"
   xmlns:svg="http://www.w3.org/2000/svg">
  <defs
     id="defs95" />
  <sodipodi:namedview
     id="namedview93"
     pagecolor="#505050"
     bordercolor="#ffffff"
     borderopacity="1"
     inkscape:pageshadow="0"
     inkscape:pageopacity="0"
     inkscape:pagecheckerboard="1"
     showgrid="false"
     inkscape:zoom="20.291667"
     inkscape:cx="11.975359"
     inkscape:cy="11.950719"
     inkscape:window-width="1280"
     inkscape:window-height="727"
     inkscape:window-x="0"
     inkscape:window-y="0"
     inkscape:window-maximized="1"
     inkscape:current-layer="svg91" />
  <path
     d="M12,5.5A3.5,3.5 0 0,1 15.5,9A3.5,3.5 0 0,1 12,12.5A3.5,3.5 0 0,1 8.5,9A3.5,3.5 0 0,1 12,5.5M5,8C5.56,8 6.08,8.15 6.53,8.42C6.38,9.85 6.8,11.27 7.66,12.38C7.16,13.34 6.16,14 5,14A3,3 0 0,1 2,11A3,3 0 0,1 5,8M19,8A3,3 0 0,1 22,11A3,3 0 0,1 19,14C17.84,14 16.84,13.34 16.34,12.38C17.2,11.27 17.62,9.85 17.47,8.42C17.92,8.15 18.44,8 19,8M5.5,18.25C5.5,16.18 8.41,14.5 12,14.5C15.59,14.5 18.5,16.18 18.5,18.25V20H5.5V18.25M0,20V18.5C0,17.11 1.89,15.94 4.45,15.6C3.86,16.28 3.5,17.22 3.5,18.25V20H0M24,20H20.5V18.25C20.5,17.22 20.14,16.28 19.55,15.6C22.11,15.94 24,17.11 24,18.5V20Z"
     id="path89" />
  <path
     style="fill:#ffffff;stroke-width:0.0492813"
     d="m 0.02464066,19.122999 c 0,-0.992596 0.04977063,-1.195357 0.41530028,-1.691894 0.53285998,-0.723839 1.82428536,-1.378864 3.31911326,-1.68349 0.2720418,-0.05544 0.5185068,-0.100798 0.5477001,-0.100798 0.029193,0 -0.046316,0.148204 -0.1677995,0.329342 -0.5068418,0.755731 -0.6646222,1.462932 -0.6646222,2.978962 v 1.028452 H 1.7494867 0.02464066 Z"
     id="path480" />
  <path
     style="fill:#ffffff;stroke-width:0.0492813"
     d="m 5.5531913,18.837782 c 0.014789,-1.086449 0.021771,-1.159828 0.1348127,-1.416837 0.6163141,-1.401247 2.3678796,-2.423044 4.784275,-2.790967 0.775027,-0.118006 2.280415,-0.118006 3.055442,0 2.332361,0.355128 4.040454,1.313419 4.695305,2.634207 l 0.208185,0.419895 0.0156,1.149747 0.0156,1.149746 H 12 5.5375942 Z"
     id="path519" />
  <path
     style="fill:#ffffff;stroke-width:0.0492813"
     d="m 20.525667,18.955121 c 0,-1.51603 -0.15778,-2.223231 -0.664622,-2.978962 -0.121483,-0.181138 -0.196993,-0.329342 -0.167799,-0.329342 0.02919,0 0.275658,0.04536 0.5477,0.100798 1.77413,0.361544 3.119321,1.141754 3.555417,2.06214 0.153372,0.323693 0.154459,0.331656 0.170516,1.249793 l 0.01616,0.924025 h -1.728686 -1.728686 z"
     id="path558" />
  <path
     style="fill:#ffffff;stroke-width:0.0492813"
     d="m 18.505133,13.940469 c -0.778668,-0.15067 -1.567963,-0.673882 -1.978202,-1.311323 l -0.15013,-0.233277 0.206221,-0.308817 c 0.615775,-0.922128 0.936485,-2.014103 0.936485,-3.1886107 V 8.4159241 l 0.283368,-0.1258725 c 0.155852,-0.06923 0.383162,-0.1537536 0.505133,-0.1878304 0.333103,-0.093063 1.102469,-0.080315 1.453799,0.024089 1.041393,0.3094693 1.856711,1.1358598 2.120053,2.1488438 0.124019,0.477058 0.08151,1.291167 -0.09077,1.738648 -0.32537,0.845075 -1.016869,1.513439 -1.872401,1.809757 -0.300785,0.104179 -1.126435,0.172465 -1.413552,0.11691 z"
     id="path597" />
  <path
     style="fill:#ffffff;stroke-width:0.0492813"
     d="M 11.495175,12.439333 C 11.116941,12.383931 10.57636,12.191829 10.234024,11.991168 9.8787257,11.782909 9.2153164,11.118557 9.0026813,10.758075 8.5367633,9.9682011 8.4037973,8.833952 8.6780403,7.9887688 9.3604626,5.8856269 11.682956,4.9303652 13.639292,5.948163 c 0.982676,0.5112441 1.697329,1.5747803 1.806569,2.6885066 0.156732,1.5979294 -0.80393,3.1164284 -2.30093,3.6370334 -0.569428,0.198028 -1.079179,0.249205 -1.649756,0.16563 z"
     id="path636" />
  <path
     style="fill:#ffffff;stroke-width:0.0492813"
     d="M 4.4353183,13.924146 C 3.4235417,13.704333 2.5800986,12.980454 2.20944,12.013802 2.0535313,11.607203 1.9969241,10.820341 2.091967,10.380884 2.2027799,9.8685103 2.5083913,9.3171832 2.8989874,8.9250084 3.4944269,8.3271623 4.1816484,8.0377553 5.0020534,8.0393521 c 0.5028302,9.788e-4 0.7492835,0.052679 1.1950719,0.2506995 l 0.2833675,0.1258725 v 0.4825172 c 0,1.1746827 0.3131853,2.2536487 0.9141511,3.1493727 l 0.2309821,0.344273 -0.1545098,0.240782 c -0.1946168,0.303285 -0.6464778,0.735841 -0.9600902,0.919072 -0.4515204,0.263806 -0.8505932,0.378248 -1.3857693,0.397398 -0.2710473,0.0097 -0.5815195,-0.0016 -0.6899384,-0.02519 z"
     id="path675" />
</svg>
