<?xml version="1.0" encoding="UTF-8" standalone="no"?>
<svg
   version="1.1"
   width="24"
   height="24"
   viewBox="0 0 24 24"
   id="svg179"
   sodipodi:docname="clock-time-three-white.svg"
   inkscape:version="1.1.2 (0a00cf5339, 2022-02-04)"
   xmlns:inkscape="http://www.inkscape.org/namespaces/inkscape"
   xmlns:sodipodi="http://sodipodi.sourceforge.net/DTD/sodipodi-0.dtd"
   xmlns="http://www.w3.org/2000/svg"
   xmlns:svg="http://www.w3.org/2000/svg">
  <defs
     id="defs183" />
  <sodipodi:namedview
     id="namedview181"
     pagecolor="#505050"
     bordercolor="#ffffff"
     borderopacity="1"
     inkscape:pageshadow="0"
     inkscape:pageopacity="0"
     inkscape:pagecheckerboard="1"
     showgrid="false"
     inkscape:zoom="21.5"
     inkscape:cx="12"
     inkscape:cy="11.976744"
     inkscape:window-width="1280"
     inkscape:window-height="727"
     inkscape:window-x="0"
     inkscape:window-y="0"
     inkscape:window-maximized="1"
     inkscape:current-layer="svg179" />
  <path
     d="M12 2C6.5 2 2 6.5 2 12C2 17.5 6.5 22 12 22C17.5 22 22 17.5 22 12S17.5 2 12 2M17 13H11V7H12.5V11.5H17V13Z"
     id="path177" />
  <path
     style="fill:#ffffff;stroke-width:0.0465116"
     d="M 10.837113,21.904667 C 9.1205144,21.696347 7.577154,21.083537 6.1162791,20.030203 5.5038082,19.588593 4.4728046,18.568287 4.01747,17.95317 1.3640191,14.368593 1.363726,9.6384958 4.0167323,6.0468299 4.4533827,5.4556883 5.4440113,4.4658837 6.0468299,4.0184209 8.7185247,2.0352641 12.086488,1.500537 15.202201,2.5648347 c 4.354705,1.4875258 7.166608,5.8229248 6.725211,10.3689473 -0.175766,1.810248 -0.844821,3.536112 -1.945833,5.019388 -0.417675,0.562689 -1.416271,1.573031 -1.958323,1.981359 -2.069996,1.559328 -4.678466,2.274461 -7.186143,1.970138 z M 17,12.232558 V 11.465116 H 14.767442 12.534884 V 9.2325581 7 H 11.767442 11 v 3 3 h 3 3 z"
     id="path367" />
</svg>
