<?xml version="1.0" encoding="UTF-8" standalone="no"?>
<svg
   version="1.1"
   width="24"
   height="24"
   viewBox="0 0 24 24"
   id="svg829"
   sodipodi:docname="cog-white.svg"
   inkscape:version="1.1.2 (0a00cf5339, 2022-02-04)"
   xmlns:inkscape="http://www.inkscape.org/namespaces/inkscape"
   xmlns:sodipodi="http://sodipodi.sourceforge.net/DTD/sodipodi-0.dtd"
   xmlns="http://www.w3.org/2000/svg"
   xmlns:svg="http://www.w3.org/2000/svg">
  <defs
     id="defs833" />
  <sodipodi:namedview
     id="namedview831"
     pagecolor="#505050"
     bordercolor="#ffffff"
     borderopacity="1"
     inkscape:pageshadow="0"
     inkscape:pageopacity="0"
     inkscape:pagecheckerboard="1"
     showgrid="false"
     inkscape:zoom="20.291667"
     inkscape:cx="11.975359"
     inkscape:cy="11.950719"
     inkscape:window-width="1280"
     inkscape:window-height="727"
     inkscape:window-x="0"
     inkscape:window-y="0"
     inkscape:window-maximized="1"
     inkscape:current-layer="svg829" />
  <path
     d="M12,15.5A3.5,3.5 0 0,1 8.5,12A3.5,3.5 0 0,1 12,8.5A3.5,3.5 0 0,1 15.5,12A3.5,3.5 0 0,1 12,15.5M19.43,12.97C19.47,12.65 19.5,12.33 19.5,12C19.5,11.67 19.47,11.34 19.43,11L21.54,9.37C21.73,9.22 21.78,8.95 21.66,8.73L19.66,5.27C19.54,5.05 19.27,4.96 19.05,5.05L16.56,6.05C16.04,5.66 15.5,5.32 14.87,5.07L14.5,2.42C14.46,2.18 14.25,2 14,2H10C9.75,2 9.54,2.18 9.5,2.42L9.13,5.07C8.5,5.32 7.96,5.66 7.44,6.05L4.95,5.05C4.73,4.96 4.46,5.05 4.34,5.27L2.34,8.73C2.21,8.95 2.27,9.22 2.46,9.37L4.57,11C4.53,11.34 4.5,11.67 4.5,12C4.5,12.33 4.53,12.65 4.57,12.97L2.46,14.63C2.27,14.78 2.21,15.05 2.34,15.27L4.34,18.73C4.46,18.95 4.73,19.03 4.95,18.95L7.44,17.94C7.96,18.34 8.5,18.68 9.13,18.93L9.5,21.58C9.54,21.82 9.75,22 10,22H14C14.25,22 14.46,21.82 14.5,21.58L14.87,18.93C15.5,18.67 16.04,18.34 16.56,17.94L19.05,18.95C19.27,19.03 19.54,18.95 19.66,18.73L21.66,15.27C21.78,15.05 21.73,14.78 21.54,14.63L19.43,12.97Z"
     id="path827" />
  <path
     style="fill:#ffffff;stroke-width:0.0492813"
     d="M 9.6713401,21.819302 C 9.5504274,21.692707 9.5302246,21.599362 9.3646876,20.402464 9.267221,19.697741 9.177394,19.07382 9.1650727,19.015973 9.1492746,18.941803 9.0299271,18.857334 8.7602469,18.729455 8.5499138,18.629718 8.1650903,18.405275 7.905083,18.230694 L 7.4323427,17.913275 6.1595907,18.43097 c -0.7000135,0.284732 -1.3342983,0.517695 -1.4095217,0.517695 -0.075223,0 -0.1926008,-0.0499 -0.2608385,-0.110883 C 4.343121,18.707201 2.2916916,15.167939 2.2916259,15.046329 2.291509,14.829751 2.4479101,14.674624 3.4947944,13.852958 4.5488762,13.025644 4.6062425,12.972154 4.5737889,12.846884 4.5288607,12.673462 4.5281238,11.383982 4.5728262,11.162218 L 4.607595,10.989733 3.4951402,10.13303 C 2.4412864,9.3214556 2.2915066,9.1746821 2.2916259,8.9536706 2.2916916,8.8320611 4.343121,5.292799 4.4892305,5.1622177 c 0.068238,-0.060986 0.1845708,-0.110883 0.2585181,-0.110883 0.073947,0 0.6881109,0.2228684 1.3648083,0.4952632 C 6.7892543,5.8189926 7.3761807,6.0442008 7.4168378,6.0470605 7.4574949,6.0499202 7.6814794,5.9213022 7.914581,5.7612429 8.1476831,5.6011835 8.5199295,5.382239 8.7417955,5.2746995 9.0164821,5.1415575 9.1519338,5.0472158 9.1663318,4.9790116 9.1779607,4.9239228 9.267221,4.3022587 9.3646876,3.5975359 9.5302246,2.4006378 9.5504274,2.3072931 9.6713401,2.1806982 L 9.8007809,2.0451745 H 12 14.199219 l 0.128985,0.1355237 c 0.120185,0.1262769 0.141165,0.2229469 0.307497,1.4168377 0.09818,0.7047228 0.187693,1.3265678 0.198912,1.3818777 0.01381,0.068054 0.135955,0.1556759 0.377853,0.2710472 0.196599,0.093766 0.581638,0.3173026 0.855643,0.4967477 l 0.498191,0.326264 1.276497,-0.5110689 c 0.702072,-0.2810879 1.336663,-0.5110689 1.4102,-0.5110689 0.07354,0 0.189714,0.049897 0.25817,0.110883 0.147065,0.1310153 2.197252,3.6676933 2.197252,3.7903727 0,0.2206423 -0.150013,0.3685562 -1.191132,1.1744636 -0.880974,0.681943 -1.097748,0.872573 -1.086906,0.955819 0.03136,0.240744 0.0267,1.689635 -0.0057,1.785985 -0.03097,0.09199 0.102645,0.213304 1.07836,0.979112 1.05309,0.826536 1.205418,0.978108 1.205418,1.19944 0,0.122679 -2.050187,3.659357 -2.197252,3.790372 -0.06846,0.06099 -0.185185,0.110883 -0.259396,0.110883 -0.07421,0 -0.707265,-0.232553 -1.406783,-0.516784 l -1.271852,-0.516785 -0.475479,0.316376 c -0.261515,0.174007 -0.647571,0.39804 -0.857904,0.49785 -0.270941,0.128571 -0.388704,0.212134 -0.403968,0.286651 -0.01185,0.05785 -0.09016,0.60415 -0.174018,1.214006 -0.200241,1.456225 -0.191413,1.414123 -0.331431,1.580525 l -0.121439,0.144321 H 12.004839 9.8007809 Z m 3.1664419,-6.397023 c 0.434552,-0.102066 1.045243,-0.407758 1.410469,-0.706034 0.551152,-0.450122 1.010992,-1.188067 1.175705,-1.88676 0.09465,-0.401496 0.09465,-1.257474 0,-1.65897 C 15.188257,10.17071 14.488911,9.3018205 13.552361,8.8451847 13.031007,8.5909868 12.630107,8.5024834 12,8.5024834 c -0.630107,0 -1.031007,0.088503 -1.552361,0.3427013 -0.9365499,0.4566358 -1.6358956,1.3255253 -1.8715953,2.3253303 -0.095499,0.405092 -0.094641,1.257184 0.00168,1.667267 0.102066,0.434552 0.407758,1.045243 0.7060341,1.410469 0.4419406,0.541134 1.1851772,1.008883 1.8646522,1.173499 0.388231,0.09406 1.289974,0.09434 1.689374,5.27e-4 z"
     id="path1162" />
</svg>
