<?xml version="1.0" encoding="UTF-8" standalone="no"?>
<svg
   version="1.1"
   width="24"
   height="24"
   viewBox="0 0 24 24"
   id="svg917"
   sodipodi:docname="help-box-white.svg"
   inkscape:version="1.1.2 (0a00cf5339, 2022-02-04)"
   xmlns:inkscape="http://www.inkscape.org/namespaces/inkscape"
   xmlns:sodipodi="http://sodipodi.sourceforge.net/DTD/sodipodi-0.dtd"
   xmlns="http://www.w3.org/2000/svg"
   xmlns:svg="http://www.w3.org/2000/svg">
  <defs
     id="defs921" />
  <sodipodi:namedview
     id="namedview919"
     pagecolor="#505050"
     bordercolor="#ffffff"
     borderopacity="1"
     inkscape:pageshadow="0"
     inkscape:pageopacity="0"
     inkscape:pagecheckerboard="1"
     showgrid="false"
     inkscape:zoom="21.5"
     inkscape:cx="12"
     inkscape:cy="11.976744"
     inkscape:window-width="1280"
     inkscape:window-height="727"
     inkscape:window-x="0"
     inkscape:window-y="0"
     inkscape:window-maximized="1"
     inkscape:current-layer="svg917" />
  <path
     d="M11,18H13V16H11V18M12,6A4,4 0 0,0 8,10H10A2,2 0 0,1 12,8A2,2 0 0,1 14,10C14,12 11,11.75 11,15H13C13,12.75 16,12.5 16,10A4,4 0 0,0 12,6M5,3H19A2,2 0 0,1 21,5V19A2,2 0 0,1 19,21H5A2,2 0 0,1 3,19V5A2,2 0 0,1 5,3Z"
     id="path915" />
  <path
     style="fill:#ffffff;stroke-width:0.0465116"
     d="M 4.7232425,20.949389 C 4.3012047,20.894787 3.9088635,20.688184 3.5875937,20.351366 3.2651257,20.013292 3.1067052,19.683609 3.047479,19.227354 2.987717,18.766972 2.987717,5.233028 3.047479,4.772646 3.1067052,4.316391 3.2651257,3.9867083 3.5875937,3.6486342 3.9224145,3.2976096 4.293218,3.108764 4.7674419,3.0477522 c 0.4682802,-0.060247 13.9968361,-0.060247 14.4651161,0 0.474224,0.061012 0.845028,0.2498574 1.179849,0.600882 0.322467,0.3380741 0.480888,0.6677568 0.540114,1.1240118 0.06,0.4621831 0.05974,13.993449 -2.79e-4,14.459912 -0.06101,0.474224 -0.249858,0.845028 -0.600882,1.179849 -0.338074,0.322467 -0.667757,0.480888 -1.124012,0.540114 -0.425335,0.05521 -14.075931,0.05226 -14.5041116,-0.0031 z M 13,17 V 15.976744 H 12 11 V 17 18.023256 h 1 1 z m 0.05838,-2.306474 c 0.05173,-0.644423 0.42353,-1.162472 1.554476,-2.16592 0.288784,-0.256227 0.629403,-0.596995 0.756932,-0.757264 0.483255,-0.607315 0.690642,-1.265044 0.638818,-2.0260173 C 15.892973,8.0464586 14.759339,6.6316701 13.116279,6.1346722 12.746988,6.0229679 12.618225,6.0076727 12.023256,6.0048368 11.282267,6.0013052 10.927748,6.0724219 10.325839,6.3453407 9.0188474,6.9379585 8.1135651,8.2222847 7.9942316,9.6531953 l -0.030862,0.3700607 h 1.0299428 1.0299436 l 5.53e-4,-0.1279072 c 8.84e-4,-0.2047804 0.117598,-0.5876539 0.257489,-0.8446804 0.17742,-0.3259791 0.562888,-0.6769791 0.939237,-0.8552521 0.288565,-0.1366903 0.352503,-0.1488949 0.779466,-0.1487833 0.431246,9.3e-5 0.489606,0.011591 0.801412,0.157627 0.759198,0.3555744 1.233517,1.153914 1.159093,1.950903 -0.05407,0.578977 -0.371764,1.015728 -1.188397,1.633728 -1.208432,0.914502 -1.691776,1.678471 -1.759388,2.780876 L 10.986334,15 h 1.023722 1.023721 l 0.0246,-0.306474 z"
     id="path1065" />
</svg>
