<?xml version="1.0" encoding="UTF-8" standalone="no"?>
<svg
   version="1.1"
   width="24"
   height="24"
   viewBox="0 0 24 24"
   id="svg585"
   sodipodi:docname="message-white.svg"
   inkscape:version="1.1.2 (0a00cf5339, 2022-02-04)"
   xmlns:inkscape="http://www.inkscape.org/namespaces/inkscape"
   xmlns:sodipodi="http://sodipodi.sourceforge.net/DTD/sodipodi-0.dtd"
   xmlns="http://www.w3.org/2000/svg"
   xmlns:svg="http://www.w3.org/2000/svg">
  <defs
     id="defs589" />
  <sodipodi:namedview
     id="namedview587"
     pagecolor="#505050"
     bordercolor="#ffffff"
     borderopacity="1"
     inkscape:pageshadow="0"
     inkscape:pageopacity="0"
     inkscape:pagecheckerboard="1"
     showgrid="false"
     inkscape:zoom="21.5"
     inkscape:cx="12"
     inkscape:cy="11.976744"
     inkscape:window-width="1280"
     inkscape:window-height="727"
     inkscape:window-x="0"
     inkscape:window-y="0"
     inkscape:window-maximized="1"
     inkscape:current-layer="svg585" />
  <path
     d="M20,2H4A2,2 0 0,0 2,4V22L6,18H20A2,2 0 0,0 22,16V4C22,2.89 21.1,2 20,2Z"
     id="path583" />
  <path
     style="fill:#ffffff;stroke-width:0.0465116"
     d="M 2.0238079,12.860262 C 2.0242665,5.3061686 2.0351524,3.7269082 2.0881361,3.5279158 2.2404773,2.9557642 2.6616689,2.4601453 3.2205336,2.1954163 L 3.5348837,2.0465116 H 12 20.465116 l 0.348837,0.1684105 c 0.556026,0.2684361 0.943011,0.7312326 1.097911,1.3129937 0.09319,0.3500125 0.09476,12.5886532 0.0017,12.9372002 -0.18975,0.710342 -0.737594,1.258152 -1.448403,1.44831 -0.189325,0.05065 -1.555443,0.06232 -7.348637,0.06277 l -7.116079,5.52e-4 -1.9885726,1.988169 -1.9885726,1.98817 z"
     id="path1188" />
</svg>
